<?xml version="1.0" encoding="UTF-8" standalone="no"?>
<!-- Created with Inkscape (http://www.inkscape.org/) -->

<svg
   version="1.1"
   id="svg2"
   width="28"
   height="28"
   viewBox="0 0 28 28"
   sodipodi:docname="apple.svg"
   inkscape:version="1.2.1 (9c6d41e410, 2022-07-14)"
   xml:space="preserve"
   xmlns:inkscape="http://www.inkscape.org/namespaces/inkscape"
   xmlns:sodipodi="http://sodipodi.sourceforge.net/DTD/sodipodi-0.dtd"
   xmlns="http://www.w3.org/2000/svg"
   xmlns:svg="http://www.w3.org/2000/svg"><defs
     id="defs6" /><sodipodi:namedview
     id="namedview4"
     pagecolor="#ffffff"
     bordercolor="#000000"
     borderopacity="0.25"
     inkscape:showpageshadow="false"
     inkscape:pageopacity="0.0"
     inkscape:pagecheckerboard="0"
     inkscape:deskcolor="#d1d1d1"
     showgrid="true"
     inkscape:zoom="16"
     inkscape:cx="3.75"
     inkscape:cy="13.875"
     inkscape:window-width="1920"
     inkscape:window-height="1017"
     inkscape:window-x="-8"
     inkscape:window-y="-8"
     inkscape:window-maximized="1"
     inkscape:current-layer="svg2"><inkscape:grid
       type="xygrid"
       id="grid293"
       visible="true"
       spacingx="2"
       spacingy="2"
       color="#0099e5"
       opacity="1"
       empcolor="#000000"
       empopacity="0.30196078"
       originx="0"
       originy="0"
       empspacing="1"
       enabled="true" /></sodipodi:namedview><path
     id="rect12458-6"
     style="display:inline;fill:#f00000;fill-opacity:1;stroke-width:1.37953"
     d="M 6 6 L 6 8 L 4 8 L 4 10 L 2 10 L 2 12 L 2 14 L 2 16 L 2 18 L 2 20 L 4 20 L 4 22 L 4 24 L 6 24 L 8 24 L 8 26 L 10 26 L 12 26 L 14 26 L 16 26 L 18 26 L 20 26 L 20 24 L 22 24 L 24 24 L 24 22 L 24 20 L 26 20 L 26 18 L 26 16 L 26 14 L 26 12 L 26 10 L 24 10 L 24 8 L 22 8 L 22 6 L 20 6 L 18 6 L 16 6 L 14 6 L 12 6 L 10 6 L 8 6 L 6 6 z "
     inkscape:label="red" /><path
     id="rect12458-45-3"
     style="display:inline;fill:#ff2a2a;fill-opacity:1;stroke-width:1.37953"
     d="M 6 6 L 6 8 L 4 8 L 4 10 L 2 10 L 2 12 L 2 14 L 2 16 L 4 16 L 4 14 L 4 12 L 6 12 L 6 10 L 8 10 L 8 8 L 10 8 L 10 6 L 8 6 L 6 6 z "
     inkscape:label="highlight" /><path
     id="rect14205"
     style="opacity:1;fill:#552200;fill-opacity:1;stroke-width:1.37953"
     d="M 14 2 L 14 4 L 12 4 L 12 6 L 12 8 L 14 8 L 16 8 L 16 6 L 18 6 L 18 4 L 18 2 L 16 2 L 14 2 z "
     inkscape:label="stem" /><path
     id="rect12458-31-4"
     style="fill:#aa0000;display:inline;fill-opacity:1;stroke-width:1.37953"
     d="M 24 12 L 24 14 L 24 16 L 24 18 L 22 18 L 22 20 L 22 22 L 20 22 L 18 22 L 18 24 L 16 24 L 14 24 L 14 26 L 16 26 L 18 26 L 20 26 L 20 24 L 22 24 L 24 24 L 24 22 L 24 20 L 26 20 L 26 18 L 26 16 L 26 14 L 26 12 L 24 12 z "
     inkscape:label="shadow" /></svg>
